<svg width="78" height="77" viewBox="0 0 78 77" fill="none" xmlns="http://www.w3.org/2000/svg">
<g clip-path="url(#clip0_2734_56345)">
<path d="M38.9991 77.0304C60.2562 77.0304 77.5509 59.7357 77.5509 38.4786C77.5509 17.2215 60.2562 -0.0731964 38.9991 -0.0731964C17.742 -0.0731964 0.447266 17.2215 0.447266 38.4786C0.447266 59.7357 17.742 77.0304 38.9991 77.0304Z" fill="#39105F"/>
<path d="M68.0974 55.1773C65.8898 54.0851 62.2773 52.8698 56.1769 51.5645C50.1833 50.2859 44.6297 49.53 44.3963 49.4967L40.1675 48.9273L41.7394 52.8931C42.8712 55.7467 42.8815 65.2731 42.6018 71.8427C41.4161 71.9692 40.2178 72.0358 38.9987 72.0358C38.3128 72.0358 37.6302 72.0125 36.9543 71.9722C37.171 69.332 36.8144 65.1932 35.0963 58.3901C34.7899 57.1718 34.4669 55.9894 34.1476 54.8676C33.3448 52.044 34.6634 49.0772 37.2543 47.6953C37.2706 47.6853 37.2872 47.6754 37.3042 47.6687C41.0565 45.6475 45.535 41.5719 45.565 33.6172C45.575 30.021 44.283 27.011 41.7161 24.6668C38.6428 21.8632 34.141 20.5113 29.9551 19.882C37.1607 18.5601 48.4822 19.6988 65.9064 28.0132C69.9191 29.9278 72.5459 33.9535 72.5562 38.402V38.4786C72.5562 44.5554 70.9347 50.2592 68.0974 55.1773ZM47.6328 70.907C47.7426 67.9369 47.8329 63.4946 47.6364 59.4194C47.5265 57.1385 49.5777 55.3604 51.8216 55.7833C52.8338 55.9761 53.893 56.1862 54.9582 56.4126C60.4922 57.588 63.5626 58.6202 65.2505 59.3594C60.8252 64.9068 54.6818 69.029 47.6328 70.907ZM31.9899 71.2966C29.1194 70.6839 26.3823 69.705 23.8351 68.406L25.7364 58.793C25.9162 57.8877 25.5832 56.9587 24.8706 56.376C23.1125 54.9375 22.1003 52.7133 21.4743 50.2459C20.8486 47.7786 20.6085 45.0682 20.3921 42.6508C19.9962 38.2155 19.7128 35.009 17.1156 33.8436C15.9336 33.3108 14.6017 33.2675 13.3367 33.454C13.6527 32.8347 14.0027 32.4118 14.3386 32.3419C14.8081 32.2486 15.2277 32.0256 15.564 31.7092C15.897 31.3962 16.1467 30.99 16.2666 30.5272C16.2702 30.5172 16.3098 30.3673 16.4031 30.1076C17.715 26.5115 21.2515 24.2406 25.0741 24.4204C29.6222 24.6335 35.2994 25.5725 38.3461 28.3562C39.8511 29.728 40.5774 31.4428 40.5704 33.6005C40.5537 37.9625 38.7024 41.1923 35.0663 43.2002C32.1228 44.8251 29.0631 45.0715 29.0428 45.0748L25.743 45.2979L26.8618 48.4112C26.8785 48.4612 28.7698 53.7388 30.2552 59.6125C31.8498 65.9324 32.0995 69.4219 31.9899 71.2966ZM19.8594 62.7658L19.2933 65.6227C17.1956 64.0943 15.278 62.3292 13.5828 60.365C13.7359 57.3516 15.8104 55.2938 17.4753 54.1217C17.8319 55.0507 18.2577 55.9498 18.7705 56.7989C19.846 58.5969 20.2659 60.7113 19.8594 62.7658ZM9.92006 55.2106C7.07313 50.2825 5.44188 44.5687 5.44188 38.4786C5.44188 19.9752 20.4957 4.92142 38.9987 4.92142C52.368 4.92142 63.9319 12.7796 69.3261 24.1174C49.6406 14.4911 34.1639 11.9905 23.2524 16.7021C15.9003 19.8753 12.9068 25.446 11.8846 27.9699C7.9988 30.0111 7.3162 36.3143 7.24628 37.1001L6.82673 41.7884L10.9426 39.5075C12.2143 38.8049 13.9394 38.2855 14.7615 38.3354C15.0712 39.2245 15.2676 41.4321 15.4178 43.0936C15.5806 44.9283 15.7641 46.9894 16.13 49.0772C14.3886 50.0694 11.5783 52.054 9.92006 55.2106ZM38.9987 -0.0731964C17.742 -0.0731964 0.447266 17.2215 0.447266 38.4786C0.447266 59.7354 17.742 77.0304 38.9987 77.0304C60.2558 77.0304 77.5509 59.7354 77.5509 38.4786C77.5509 17.2215 60.2558 -0.0731964 38.9987 -0.0731964Z" fill="#39105F"/>
<path d="M19.8606 62.7658L19.2945 65.6227C17.1968 64.0944 15.2788 62.3293 13.584 60.3651C13.7372 57.3517 15.8116 55.2939 17.4765 54.1218C17.8327 55.0508 18.2589 55.9498 18.7717 56.7989C19.8472 58.5966 20.2668 60.7114 19.8606 62.7658Z" fill="#79178C"/>
<path d="M28.13 43.563C27.9602 43.6396 27.7837 43.6762 27.6106 43.6762C27.0944 43.6762 26.605 43.3566 26.4252 42.8238C26.2187 42.2112 26.545 41.5452 27.1311 41.2722C29.9913 39.9503 35.6619 36.4074 35.199 33.7403C34.8394 31.6792 31.4165 31.3229 28.9325 31.3995C28.4297 31.4161 27.9502 31.6092 27.544 31.9089C26.9246 32.3651 25.8857 32.7747 24.1077 32.8146C24.0644 34.8258 24.081 39.1345 24.7436 44.3122C24.8102 44.8417 24.5638 45.3844 24.0877 45.6275C23.8946 45.724 23.6981 45.7673 23.5083 45.7673C22.889 45.7673 22.3529 45.3078 22.273 44.6752C21.5671 39.1877 21.5604 34.7192 21.6104 32.6581C21.5105 32.6448 21.4139 32.6348 21.3073 32.6182L17.8977 32.132L19.4227 29.042C19.8123 28.2562 21.2707 25.6656 23.7614 25.2761C25.0966 25.0696 26.4085 25.5458 27.4507 26.6246C27.807 26.9942 28.0767 27.3538 28.2765 27.6968C28.6927 28.4127 29.4386 28.8622 30.2677 28.8955C33.5841 29.0254 37.097 30.0776 37.6597 33.3107C38.5821 38.615 29.2022 43.0736 28.13 43.563ZM38.3457 28.3561C35.2989 25.5724 29.6217 24.6334 25.0733 24.4203C21.2507 24.2405 17.7146 26.5114 16.4026 30.1075C16.3094 30.3672 16.2694 30.5171 16.2661 30.5271C16.1462 30.9899 15.8965 31.3961 15.5635 31.7091C15.2272 32.0255 14.8077 32.2486 14.3382 32.3418C14.0019 32.4117 13.6523 32.8346 13.3359 33.4539C14.6012 33.2675 15.9331 33.3107 17.1152 33.8435C19.7124 35.0089 19.9954 38.2155 20.3917 42.6507C20.6081 45.0681 20.8478 47.7785 21.4738 50.2458C22.0998 52.7132 23.1121 54.9378 24.8702 56.3759C25.5827 56.9586 25.9157 57.8876 25.7359 58.7933L23.8346 68.4063C26.3819 69.7049 29.1189 70.6841 31.9892 71.2968C32.0991 69.4222 31.8493 65.9323 30.2544 59.6127C28.7693 53.7387 26.878 48.4611 26.8614 48.4111L25.7426 45.2978L29.0423 45.0747C29.0623 45.0714 32.1224 44.825 35.0659 43.2001C38.7019 41.1923 40.5533 37.9624 40.5699 33.6004C40.5766 31.4428 39.8507 29.7279 38.3457 28.3561Z" fill="white"/>
<path d="M65.2511 59.3593C60.8258 64.9067 54.6824 69.0289 47.6334 70.9072C47.7433 67.9371 47.8332 63.4949 47.637 59.4196C47.5272 57.1384 49.5783 55.3603 51.8222 55.7835C52.8344 55.9763 53.8936 56.1864 54.9588 56.4125C60.4929 57.5882 63.5632 58.6201 65.2511 59.3593Z" fill="#79178C"/>
<path d="M72.5558 38.4019V38.4785C72.5558 44.5553 70.9343 50.2591 68.097 55.1771C65.8894 54.085 62.2769 52.87 56.1768 51.5644C50.1833 50.2857 44.6293 49.5299 44.3962 49.4966L40.1671 48.9272L41.739 52.8929C42.8712 55.7465 42.8812 65.2733 42.6015 71.8425C41.4157 71.969 40.2174 72.0356 38.9987 72.0356C38.3127 72.0356 37.6301 72.0123 36.9542 71.9724C37.1706 69.3319 36.8144 65.193 35.0962 58.3903C34.7899 57.172 34.4669 55.9896 34.1472 54.8678C33.3448 52.0438 34.6633 49.077 37.2539 47.6952C37.2705 47.6852 37.2872 47.6752 37.3038 47.6686C41.0561 45.6474 45.535 41.5718 45.5646 33.617C45.5749 30.0209 44.283 27.0108 41.7157 24.6667C38.6424 21.863 34.1406 20.5112 29.9551 19.8818C37.1606 18.5599 48.4818 19.6987 65.906 28.0131C69.9187 29.9277 72.5459 33.9533 72.5558 38.4019Z" fill="#79178C"/>
<path d="M69.3259 24.1173C49.6405 14.491 34.1638 11.9904 23.2522 16.7019C15.9001 19.8752 12.9067 25.4459 11.8845 27.9698C7.99865 30.0109 7.31605 36.3141 7.24613 37.1L6.82658 41.7882L10.9421 39.5074C12.2141 38.8048 13.9389 38.2854 14.7614 38.3353C15.071 39.2243 15.2675 41.432 15.4173 43.0935C15.5805 44.9282 15.7636 46.9893 16.1299 49.0771C14.3884 50.0693 11.5781 52.0539 9.91991 55.2104C7.07298 50.2824 5.44141 44.5686 5.44141 38.4785C5.44141 19.9751 20.4952 4.9213 38.9986 4.9213C52.3675 4.9213 63.9317 12.7795 69.3259 24.1173Z" fill="#BE6DA2"/>
<path d="M28.1327 43.563C27.9629 43.6396 27.7864 43.6763 27.6133 43.6763C27.0971 43.6763 26.6077 43.3566 26.4279 42.8238C26.2214 42.2112 26.5477 41.5452 27.1338 41.2722C29.994 39.9503 35.6646 36.4074 35.2017 33.7403C34.8421 31.6792 31.4192 31.3229 28.9352 31.3995C28.4324 31.4161 27.9529 31.6093 27.5467 31.9089C26.9273 32.3651 25.8885 32.7747 24.1104 32.8146C24.0671 34.8258 24.0837 39.1345 24.7463 44.3122C24.8129 44.8417 24.5665 45.3844 24.0904 45.6275C23.8973 45.724 23.7008 45.7673 23.511 45.7673C22.8917 45.7673 22.3556 45.3078 22.2757 44.6752C21.5698 39.1878 21.5631 34.7192 21.6131 32.6581C21.5132 32.6448 21.4166 32.6348 21.3101 32.6182L17.9004 32.132L19.4254 29.042C19.815 28.2562 21.2734 25.6657 23.7641 25.2761C25.0993 25.0696 26.4112 25.5458 27.4534 26.6246C27.8097 26.9942 28.0794 27.3538 28.2792 27.6968C28.6954 28.4127 29.4413 28.8622 30.2704 28.8955C33.5868 29.0254 37.0997 30.0776 37.6624 33.3108C38.5848 38.615 29.2049 43.0736 28.1327 43.563Z" fill="#39105F"/>
</g>
<defs>
<clipPath id="clip0_2734_56345">
<rect width="77" height="77" fill="white" transform="translate(0.5)"/>
</clipPath>
</defs>
</svg>
